<?xml version="1.0" encoding="UTF-8" standalone="no"?>
<!DOCTYPE svg PUBLIC "-//W3C//DTD SVG 1.1//EN" "http://www.w3.org/Graphics/SVG/1.1/DTD/svg11.dtd">
<svg width="100%" height="100%" viewBox="0 0 48 40" version="1.1" xmlns="http://www.w3.org/2000/svg" xmlns:xlink="http://www.w3.org/1999/xlink" xml:space="preserve" xmlns:serif="http://www.serif.com/" style="fill-rule:evenodd;clip-rule:evenodd;stroke-linejoin:round;stroke-miterlimit:2;">
    <g transform="matrix(1,0,0,1,-154.8,-131.235)">
        <g transform="matrix(1,0,0,1,-16.2306,18.8639)">
            <path d="M194.992,152.359C198.059,145.094 206,140.188 213.871,140.703C215.512,140.809 217.156,141.137 218.543,142C216.902,138.621 215.234,135.156 214.855,131.418C214.668,129.586 214.797,127.742 214.801,125.902C214.801,121.309 214.75,116.711 213.238,112.371C210.375,114.59 207.641,116.953 205.031,119.469C202.453,121.957 199.098,125.18 195.52,125.176C192.004,125.176 189.203,122.645 186.609,120.277C183.477,117.387 180.457,114.691 176.844,112.41C175.496,118.98 175.098,125.605 175.648,132.289C175.711,133.078 175.789,133.891 175.531,134.633C175.371,135.051 175.16,135.441 174.902,135.805C173.613,137.805 172.324,139.805 171.031,141.805C171.371,141.375 171.918,141.16 172.438,141.012C174.621,140.402 176.938,140.578 179.199,140.777C182.859,141.082 191.285,142.93 194.992,152.359Z" style="fill:rgb(158,27,52);fill-rule:nonzero;"/>
        </g>
    </g>
</svg>
